# xmcd
#
# Track frame offsets:
#	183
#	19983
#	39083
#	68820
#	89915
#	120258
#	159528
#	174033
#	189583
#	217065
#
# Disc length: 3503 seconds
#
# Revision: 1
# Processed by: cddbd v1.4PL0 Copyright (c) Steve Scherf et al.
# Submitted via: audiograbber 1.81.01
#
DISCID=800dad0a
DTITLE=Gary Moore - White Lightning
DYEAR=1991
DGENRE=Blues Rock
TTITLE0=Oh Pretty Woman
TTITLE1=Walkin' By Myself
TTITLE2=Midnight Blues
TTITLE3=Born Under A Bad Sign
TTITLE4=Still Got The Blues
TTITLE5=Texas Strut
TTITLE6=Moving On
TTITLE7=Too Tired
TTITLE8=Further On Up The Road
TTITLE9=The Messiah Will Come Again
EXTD=
EXTT0=
EXTT1=
EXTT2=
EXTT3=
EXTT4=
EXTT5=
EXTT6=Special Guest - Guitar and Vocals - Albert Collins
EXTT7=Special Guest - Guitar and Vocals - Albert Collins
EXTT8=
EXTT9=
PLAYORDER=
